<?xml version="1.0" standalone="no"?>
<!DOCTYPE svg PUBLIC "-//W3C//DTD SVG 20010904//EN"
 "http://www.w3.org/TR/2001/REC-SVG-20010904/DTD/svg10.dtd">
<svg version="1.0" xmlns="http://www.w3.org/2000/svg"
 width="240.000000pt" height="135.000000pt" viewBox="0 0 240.000000 135.000000"
 preserveAspectRatio="xMidYMid meet">
<metadata>
Created by potrace 1.12, written by Peter Selinger 2001-2015
</metadata>
<g transform="translate(0.000000,135.000000) scale(0.100000,-0.100000)"
fill="#000000" stroke="none">
<path d="M57 1304 c-4 -4 -7 -198 -7 -431 l0 -423 110 0 110 0 0 320 0 320 55
0 55 0 0 -320 0 -320 100 0 100 0 0 320 0 320 55 0 55 0 0 -320 0 -320 110 0
110 0 0 378 c0 339 -2 381 -18 412 -32 64 -36 65 -452 68 -207 2 -379 0 -383
-4z M1000 880 l0 -431 108 3 107 3 0 425 0 425 -107 3 -108 3 0 -431z M1305
1297 c-3 -7 -5 -54 -3 -103 l3 -89 253 -3 252 -2 0 -215 0 -215 -145 0 -145 0
0 165 0 166 -107 -3 -108 -3 0 -270 0 -270 315 -3 c347 -3 380 1 399 47 14 33
11 724 -3 754 -5 10 -23 25 -40 35 -27 15 -72 17 -349 20 -265 3 -318 1 -322
-11z M2115 1297 c-3 -6 -4 -199 -3 -427 l3 -415 108 -3 107 -3 0 431 0 430
-105 0 c-75 0 -107 -4 -110 -13z M50 215 l0 -165 1153 2 1152 3 3 163 2 162
-1155 0 -1155 0 0 -165z"/>
</g>
</svg>
