<svg xmlns="http://www.w3.org/2000/svg" xmlns:svg="http://www.w3.org/2000/svg" viewBox="0 0 512 512">
  <title>HTML5 Logo</title>
  <g id="html5" transform="translate(0,-50) scale(1) ">
    <title>HTML 5 Background</title>
    <g id="html5-group">
      <polygon id="html5-left" fill="#E44D26" points="107.644,470.877 74.633,100.62 437.367,100.62 404.321,470.819 255.778,512" />
      <polygon id="html5-right" fill="#F16529" points="256,480.523 376.03,447.246 404.27,130.894 256,130.894" />
    </g>
  </g>
  <g id="web" transform="translate(175,208) scale(0.1,-0.1) " fill="rgba(255,255,255,1)">
    <title>Web</title>
    <g id="web-group">
      <path id="web-path" d="m56,493c4,-21 24,-126 43,-233l36,-195l68,-3c37,-2 67,-1 67,1c0,10 60,290 62,293c2,1 14,-47 26,-109c13,-62 28,-129 33,-150l10,-38l67,3l66,3l41,230l41,230l-49,3c-27,2 -51,2 -52,0c-2,-2 -14,-78 -27,-170c-12,-93 -26,-168 -30,-168c-5,0 -8,12 -9,28c0,15 -15,90 -32,167l-32,140l-47,3c-47,3 -47,3 -57,-35c-20,-78 -61,-271 -61,-288c0,-10 -3,-15 -6,-12c-4,4 -15,66 -25,139c-30,219 -21,198 -85,198l-55,0l7,-37zm614,-198l0,-235l155,0l155,0l0,45l0,45l-100,0l-100,0l0,55l0,55l80,0l80,0l0,45l0,45l-80,0l-80,0l0,45l0,45l95,0l95,0l0,45l0,45l-150,0l-150,0l0,-235zm390,1l0,-236l108,0c129,0 176,12 219,55c28,28 33,40 33,80c0,57 -12,80 -51,101l-31,15l26,24c49,45 45,130 -7,169c-25,18 -45,21 -163,24l-134,4l0,-236zm211,144c23,-13 26,-62 3,-80c-8,-8 -34,-14 -57,-14l-42,-1l-3,53l-3,52l41,0c23,0 50,-5 61,-10zm29,-195c25,-23 25,-50 0,-75c-15,-15 -33,-20 -75,-20l-55,0l0,53c0,30 3,57 8,61c13,14 101,0 122,-19z"/>
    </g>
  </g>
  <g id="midi" transform="translate(135,240) scale(0.1,-0.1) " fill="rgba(255,255,255,1)">
    <title>Midi</title>
    <g id="midi-group">
      <path id="midi-path" d="m57,304c-4,-4 -7,-198 -7,-431l0,-423l110,0l110,0l0,320l0,320l55,0l55,0l0,-320l0,-320l100,0l100,0l0,320l0,320l55,0l55,0l0,-320l0,-320l110,0l110,0l0,378c0,339 -2,381 -18,412c-32,64 -36,65 -452,68c-207,2 -379,0 -383,-4zm943,-424l0,-431l108,3l107,3l0,425l0,425l-107,3l-108,3l0,-431zm305,417c-3,-7 -5,-54 -3,-103l3,-89l253,-3l252,-2l0,-215l0,-215l-145,0l-145,0l0,165l0,166l-107,-3l-108,-3l0,-270l0,-270l315,-3c347,-3 380,1 399,47c14,33 11,724 -3,754c-5,10 -23,25 -40,35c-27,15 -72,17 -349,20c-265,3 -318,1 -322,-11zm810,0c-3,-6 -4,-199 -3,-427l3,-415l108,-3l107,-3l0,431l0,430l-105,0c-75,0 -107,-4 -110,-13zm-2065,-1082l0,-165l1153,2l1152,3l3,163l2,162l-1155,0l-1155,0l0,-165z"/>
    </g>
  </g>
</svg>