<?xml version="1.0" standalone="no"?>
<!DOCTYPE svg PUBLIC "-//W3C//DTD SVG 20010904//EN"
 "http://www.w3.org/TR/2001/REC-SVG-20010904/DTD/svg10.dtd">
<svg version="1.0" xmlns="http://www.w3.org/2000/svg"
 width="146.000000pt" height="58.000000pt" viewBox="0 0 146.000000 58.000000"
 preserveAspectRatio="xMidYMid meet">
<metadata>
Created by potrace 1.12, written by Peter Selinger 2001-2015
</metadata>
<g transform="translate(0.000000,58.000000) scale(0.100000,-0.100000)"
fill="#000000" stroke="none">
<path d="M56 493 c4 -21 24 -126 43 -233 l36 -195 68 -3 c37 -2 67 -1 67 1 0
10 60 290 62 293 2 1 14 -47 26 -109 13 -62 28 -129 33 -150 l10 -38 67 3 66
3 41 230 41 230 -49 3 c-27 2 -51 2 -52 0 -2 -2 -14 -78 -27 -170 -12 -93 -26
-168 -30 -168 -5 0 -8 12 -9 28 0 15 -15 90 -32 167 l-32 140 -47 3 c-47 3
-47 3 -57 -35 -20 -78 -61 -271 -61 -288 0 -10 -3 -15 -6 -12 -4 4 -15 66 -25
139 -30 219 -21 198 -85 198 l-55 0 7 -37z M670 295 l0 -235 155 0 155 0 0 45
0 45 -100 0 -100 0 0 55 0 55 80 0 80 0 0 45 0 45 -80 0 -80 0 0 45 0 45 95 0
95 0 0 45 0 45 -150 0 -150 0 0 -235z M1060 296 l0 -236 108 0 c129 0 176 12
219 55 28 28 33 40 33 80 0 57 -12 80 -51 101 l-31 15 26 24 c49 45 45 130 -7
169 -25 18 -45 21 -163 24 l-134 4 0 -236z m211 144 c23 -13 26 -62 3 -80 -8
-8 -34 -14 -57 -14 l-42 -1 -3 53 -3 52 41 0 c23 0 50 -5 61 -10z m29 -195
c25 -23 25 -50 0 -75 -15 -15 -33 -20 -75 -20 l-55 0 0 53 c0 30 3 57 8 61 13
14 101 0 122 -19z"/>
</g>
</svg>
